<svg xmlns="http://www.w3.org/2000/svg" width="92" height="41" viewBox="0 0 92 41" fill="none"><path fill-rule="evenodd" clip-rule="evenodd" d="M86.5519 16.9314L90.5002 19.224C90.9203 19.468 91.1788 19.9171 91.1789 20.4027V33.6296C91.1789 34.3824 90.5686 34.9927 89.8158 34.9927H82.8471C82.2136 38.1058 79.4549 40.4559 76.1577 40.4559C72.8603 40.4559 70.1018 38.1058 69.4684 34.9925H22.0727C21.4392 38.1056 18.6806 40.4558 15.3833 40.4558C12.086 40.4558 9.32751 38.1056 8.69401 34.9925H4.3131C3.56039 34.9925 2.95001 34.3823 2.95001 33.6295C7.04846 32.9499 4.99923 30.5116 2.95001 28.0734C1.14035 25.9202 -0.669295 23.7671 1.75484 22.825C2.39124 22.5777 3.49618 22.4265 4.17387 22.3434C16.5608 20.8241 55.2663 22.1867 63.2788 22.4687C64.1507 22.4994 64.6591 22.5174 64.7307 22.5174C64.9479 20.775 64.8444 16.0571 64.7477 11.644C64.6992 9.43602 64.6525 7.30435 64.6484 5.6598C64.6447 4.15493 64.8115 1.70834 65.2114 0.257568L67.4567 2.93751H78.8024C81.4366 2.93751 83.6959 4.72895 84.2963 7.2941L86.5519 16.9314ZM83.1332 22.9909C83.1332 22.2381 83.7435 21.6278 84.4963 21.6278H88.4525V21.1878L84.9918 19.1781H74.0011C73.2483 19.1781 72.638 18.5679 72.638 17.815V5.66383H67.4569V32.2665H69.4684C70.1018 29.1532 72.8603 26.8032 76.1577 26.8032C79.4549 26.8032 82.2136 29.1533 82.8471 32.2665H88.4526V28.5232H84.4963C83.7435 28.5232 83.1332 27.913 83.1332 27.1601V22.9909ZM78.8027 5.66397C80.1642 5.66383 81.3319 6.58977 81.6419 7.91544L83.6398 16.4519H75.3643V5.66397H78.8027ZM88.4526 25.797H85.8594V24.3539H88.4526V25.797ZM32.6357 27.3784H64.7307V25.2165H5.6762V32.2665H8.69401C9.32751 29.1532 12.086 26.8032 15.3833 26.8032C18.6806 26.8032 21.4392 29.1533 22.0727 32.2665H64.7307V30.1046H32.6357C31.883 30.1046 31.2725 29.4943 31.2725 28.7415C31.2725 27.9886 31.883 27.3784 32.6357 27.3784ZM15.3833 37.7298C13.1226 37.7298 11.2834 35.8904 11.2834 33.6297C11.2834 31.3689 13.1226 29.5295 15.3833 29.5295C17.6442 29.5295 19.4835 31.3688 19.4835 33.6297C19.4835 35.8905 17.6442 37.7298 15.3833 37.7298ZM72.0676 33.9027C72.2088 36.0365 73.9887 37.7298 76.1577 37.7298C78.4184 37.7298 80.2577 35.8905 80.2577 33.6297C80.2577 31.3688 78.4184 29.5295 76.1577 29.5295C73.9887 29.5295 72.2088 31.2228 72.0676 33.3566C72.0855 33.4449 72.0951 33.5362 72.0951 33.6297C72.0951 33.7233 72.0857 33.8145 72.0676 33.9027Z" fill="#11172B"></path></svg>