<svg xmlns="http://www.w3.org/2000/svg" width="74" height="36" viewBox="0 0 74 36" fill="none"><path fill-rule="evenodd" clip-rule="evenodd" d="M13.0345 0.862549C12.7628 0.862549 12.5035 0.971487 12.3118 1.16342L11.0818 2.40116C10.8871 2.59621 10.7795 2.86077 10.7795 3.13779C10.7795 3.41376 10.8881 3.67832 11.0818 3.87337L11.3022 4.0954L8.49372 8.33359C8.37995 8.50478 8.31947 8.70709 8.31947 8.91251V16.3358C8.31947 16.9096 8.77765 17.3733 9.34447 17.3733H12.1222C12.6911 18.6495 13.9652 19.5376 15.4442 19.5376C16.9233 19.5376 18.1974 18.6495 18.7673 17.3733H32.6212C33.1911 18.6495 34.4652 19.5376 35.9442 19.5376C37.4233 19.5376 38.6974 18.6495 39.2673 17.3733H44.1934C44.7592 17.3733 45.2184 16.9096 45.2184 16.3358V12.7419C45.2184 11.5986 44.7674 10.5009 43.9659 9.69582C43.7199 9.4489 43.4452 9.2331 43.1479 9.05257L42.5893 8.71539C41.7345 8.19975 40.8058 7.82314 39.8362 7.59696L36.0621 6.72131L30.6399 1.94881C29.8445 1.2485 28.8256 0.862549 27.7699 0.862549H13.0355H13.0345ZM39.541 15.2983H43.1695V12.7419C43.1695 12.1506 42.9358 11.5841 42.5217 11.167C42.3946 11.0394 42.2531 10.9284 42.0994 10.835L41.5397 10.4978C40.8694 10.0932 40.1396 9.79646 39.379 9.62009L35.3549 8.68634C35.1909 8.64795 35.0381 8.5691 34.911 8.45809L29.2961 3.5144C28.8738 3.14297 28.3326 2.93755 27.7719 2.93755H13.4557L13.2569 3.13779L13.3461 3.22597C13.6946 3.57665 13.7479 4.1286 13.4742 4.54049L10.3684 9.22791V15.2983H11.8475C12.1222 13.5491 13.6279 12.2118 15.4442 12.2118C17.2605 12.2118 18.7652 13.5501 19.0399 15.2983H32.3475C32.6222 13.5491 34.1279 12.2118 35.9442 12.2118C37.7605 12.2118 39.2663 13.5501 39.541 15.2983ZM16.3155 4.00202C15.9772 4.00202 15.6615 4.1701 15.4699 4.4523L13.4014 7.49944C13.1216 7.91236 13.1728 8.4695 13.5244 8.82329L14.3444 9.6481C14.5361 9.84108 14.7954 9.94897 15.067 9.94897H18.9805C19.5463 9.94897 20.0055 9.48521 20.0055 8.91147V5.03952C20.0055 4.46682 19.5463 4.00202 18.9805 4.00202H16.3155ZM15.6349 7.87501L16.8546 6.07702H17.9555V7.87501H15.6349ZM22.2605 4.00202C21.6937 4.00202 21.2355 4.46682 21.2355 5.03952V8.91251C21.2355 9.48521 21.6937 9.95001 22.2605 9.95001H31.4476C31.8699 9.95001 32.2491 9.68752 32.4018 9.28912C32.5556 8.89073 32.4521 8.43837 32.1405 8.14787L28.9404 5.17025C28.1337 4.4191 27.077 4.00202 25.9802 4.00202H22.2595H22.2605ZM23.2855 7.87501V6.07702H25.9812C26.5634 6.07702 27.1241 6.29905 27.5536 6.69745L28.8174 7.87501H23.2855ZM52.375 3.4563C51.8092 3.4563 51.35 3.9211 51.35 4.4938V20.0563H3.175V12.2751H0.0999985V28.8751C0.0999985 29.4478 0.559198 29.9126 1.125 29.9126H4.73505C4.99437 32.8207 7.40927 35.1001 10.35 35.1001C13.2907 35.1001 15.7056 32.8207 15.9649 29.9126H55.4725C55.7319 32.8207 58.1468 35.1001 61.0875 35.1001C64.0282 35.1001 66.4431 32.8207 66.7024 29.9126H72.3625C72.9283 29.9126 73.3875 29.4478 73.3875 28.8751V18.5001C73.3875 18.1421 73.205 17.8101 72.9057 17.6203L69.1563 15.2485L67.3318 7.85945C67.2303 7.45067 67.0858 7.05435 66.8992 6.6767C66.275 5.41302 65.2131 4.42532 63.9165 3.89931L63.8673 3.87856C63.1775 3.60051 62.4405 3.4563 61.6974 3.4563H52.375ZM61.0875 23.6876C58.5065 23.6876 56.3315 25.443 55.6622 27.8376H53.4V5.5313H58.0125V15.9063C58.0125 16.479 58.4717 16.9438 59.0375 16.9438H67.9683L71.3375 19.0748V19.5376H67.75C67.1842 19.5376 66.725 20.0024 66.725 20.5751V23.6876C66.725 24.2603 67.1842 24.7251 67.75 24.7251H71.3375V27.8376H66.5128C65.8435 25.443 63.6684 23.6876 61.0875 23.6876ZM15.7753 27.8376H51.35V22.1313H2.15V27.8376H4.92467C5.594 25.443 7.76905 23.6876 10.35 23.6876C12.9309 23.6876 15.106 25.443 15.7753 27.8376ZM60.0625 14.8688V5.5313H61.6974C62.1791 5.5313 62.6578 5.62467 63.1057 5.80624L63.1559 5.82699C63.9862 6.1621 64.6658 6.79498 65.0665 7.60526C65.1854 7.847 65.2777 8.10015 65.3433 8.36264L66.9495 14.8688H60.0625ZM68.775 21.6126H71.3375V22.6501H68.775V21.6126ZM13.9375 29.3938C13.9375 31.3993 12.3313 33.0251 10.35 33.0251C8.36867 33.0251 6.7625 31.3993 6.7625 29.3938C6.7625 27.3883 8.36867 25.7626 10.35 25.7626C12.3313 25.7626 13.9375 27.3883 13.9375 29.3938ZM61.0875 33.0251C63.0688 33.0251 64.675 31.3993 64.675 29.3938C64.675 27.3883 63.0688 25.7626 61.0875 25.7626C59.1062 25.7626 57.5 27.3883 57.5 29.3938C57.5 31.3993 59.1062 33.0251 61.0875 33.0251ZM15.4442 17.4626C16.336 17.4626 17.0361 16.7394 17.0361 15.8752C17.0361 15.0099 16.336 14.2868 15.4453 14.2868C14.5535 14.2868 13.8545 15.0099 13.8545 15.8741C13.8545 16.7394 14.5545 17.4626 15.4453 17.4626H15.4442ZM37.5361 15.8752C37.5361 16.7394 36.835 17.4626 35.9453 17.4626C35.0535 17.4626 34.3545 16.7394 34.3545 15.8752C34.3545 15.0099 35.0545 14.2868 35.9453 14.2868C36.836 14.2868 37.5361 15.0109 37.5361 15.8752Z" fill="#11172B"></path></svg>