<svg xmlns="http://www.w3.org/2000/svg" xmlns:xlink="http://www.w3.org/1999/xlink" fill="#fff" id="Capa_1" width="800px" height="800px" viewBox="0 0 611.919 611.919" xml:space="preserve"><g>	<path d="M406.1,104.11c-1.6-3.3-2.5-6.7-1.6-8.3c0-2.5,1.6-3.3,4.2-4.2l12.6-3.3c1.601,0,2.5,0,3.3,0c2.5,0.8,4.2,3.3,5.101,10   l12.6,94.5L406.1,104.11z M339.3,123.41l93.601,71.8l-73.601-92.7c-2.5-4.2-5.899-6.7-9.2-7.5c-1.6,0-3.3,0.8-5.1,2.5l-10.9,10.9   c-1.6,1.6-1.6,3.3-1.6,5.1C332.6,116.71,335,120.11,339.3,123.41z M551.5,383.31v66.9c0,15.8-12.6,22.5-25.9,22.5h-56.8   c-1.6,28.399-25.1,50.899-54.399,50.899c-29.301,0-53.5-22.5-55.2-50.899H162c-1.6,28.399-25.1,50.899-54.4,50.899   c-28.4,0-52.7-22.5-54.4-50.899h-29C3.3,472.81,0,463.609,0,450.21v-64.3c0-10.9,0.8-19.301,6.7-30.9l56.8-112.8   c6.7-13.4,24.2-25.1,40.2-25.1H322.6c15,0,30,9.2,39.301,25.1l52.699,82.8l104.5,23.4C545.6,352.41,550.7,369.91,551.5,383.31z    M137.8,469.51c0-15.8-13.4-29.2-29.2-29.2c-16.7,0-29.2,13.4-29.2,29.2s13.4,29.2,29.2,29.2   C124.4,498.71,137.8,485.31,137.8,469.51z M197.1,248.81H116c-11.7,0.8-18.4,5.9-25.1,20.1L65,325.71h132L197.1,248.81   L197.1,248.81z M370.1,325.71l-34.3-56.8c-6.7-10.9-16.7-20.1-30.9-20.1h-73.6v76.9H370.1z M443.8,469.51   c0-15.8-13.399-29.2-29.2-29.2c-15.8,0-29.199,13.4-29.199,29.2s12.6,29.2,29.199,29.2C431.2,498.71,443.8,485.31,443.8,469.51z    M604.2,292.21h-127c-5.101,0-8.3-4.2-7.5-9.2l19.3-86c0.8-5.1,5.9-9.2,10.9-9.2H528.3c-3.3-2.5-5.1-6.7-5.1-11.7   c0-9.2,7.5-16.7,16.7-16.7c9.199,0,16.699,7.5,17.6,16.7c0,4.2-1.6,8.3-5.1,11.7H580.8c5.101,0,10.9,4.2,11.7,9.2l19.3,86   C612.6,288.11,609.3,292.21,604.2,292.21z M548.2,176.11c0-5.1-4.2-8.3-8.3-8.3c-4.101,0-8.301,4.2-8.301,8.3s4.2,8.3,8.301,8.3   C544,184.41,548.2,180.21,548.2,176.11z M320,168.61l88.6,36.7l-76.1-57.6c-3.3-1.6-6.7-2.5-9.2-2.5c-1.6,0-2.5,1.6-3.3,2.5   l-6.7,10.9c-0.8,0.8-0.8,1.6-0.8,2.5C312.5,164.41,315,166.81,320,168.61z"></path></g></svg>