<svg xmlns="http://www.w3.org/2000/svg" width="86" height="30" viewBox="0 0 86 30" fill="none"><path fill-rule="evenodd" clip-rule="evenodd" d="M60.6284 8.11637H72.1492C79.4777 8.11637 85.44 14.1454 85.44 21.5565V24.2619C85.44 25.7057 84.2785 26.8802 82.8508 26.8802H78.0858C76.6303 28.5381 74.5088 29.5856 72.1492 29.5856C69.7896 29.5856 67.6683 28.5381 66.2127 26.8802H21.9029C20.4472 28.5381 18.3259 29.5856 15.966 29.5856C12.8297 29.5856 10.1126 27.7365 8.82351 25.0604L2.84806 23.3338C1.1713 22.8494 0 21.2794 0 19.5156V16.1454C0 15.1564 0.545514 14.2939 1.34785 13.8486L1.39975 9.09259C1.41326 7.86459 2.25131 6.82459 3.43762 6.56319L4.97905 6.2235L3.15344 2.53125H1.25156C0.560366 2.53125 0 1.96459 0 1.26562C0 0.566663 0.560366 0 1.25156 0H9.27775C9.96895 0 10.5293 0.566663 10.5293 1.26562C10.5293 1.96459 9.96895 2.53125 9.27775 2.53125H5.9521L7.5027 5.66747L29.1485 0.897581C31.8509 0.302231 34.6236 0.00016875 37.3898 0.00016875H48.7592C51.2373 0.00016875 53.5672 0.97605 55.3195 2.74793L60.6284 8.11637ZM2.50312 19.5156C2.50312 20.1552 2.92765 20.7243 3.53575 20.9L8.05422 22.2056C8.0372 21.9913 8.02602 21.7752 8.02602 21.5565C8.02602 17.1291 11.588 13.5271 15.9662 13.5271H24.6808C27.159 13.5271 29.489 14.503 31.2411 16.275L31.8903 16.9315C33.1699 18.2253 34.8712 18.9379 36.6808 18.9379H52.5429C53.6377 18.9379 54.6672 18.5068 55.4413 17.7238L62.4393 10.6475H46.7337C46.0425 10.6475 45.4821 10.0808 45.4821 9.38183C45.4821 8.68286 46.0425 8.1162 46.7337 8.1162H57.0884L53.5496 4.53752C52.27 3.24371 50.5688 2.53108 48.7592 2.53108H39.9583V8.1162H41.3827C42.0739 8.1162 42.6342 8.68286 42.6342 9.38183C42.6342 10.0808 42.0739 10.6475 41.3827 10.6475H36.0314C33.8663 10.6475 32.1045 8.86613 32.1045 6.67642V2.92697C31.292 3.04813 30.4831 3.19393 29.6814 3.37061L3.97046 9.03639C3.93107 9.045 3.90321 9.07976 3.90271 9.1206L3.85465 13.5271H6.60258C7.29377 13.5271 7.85414 14.0938 7.85414 14.7927C7.85414 15.4917 7.29377 16.0584 6.60258 16.0584H2.58923C2.54167 16.0584 2.50312 16.0974 2.50312 16.1454V19.5156ZM37.4554 2.53142V8.11637H36.0317C35.2464 8.11637 34.6079 7.47039 34.6079 6.67659V2.64144C35.5338 2.56922 36.4623 2.53142 37.39 2.53142H37.4554ZM82.9369 24.2619C82.9369 24.3099 82.8984 24.3489 82.8508 24.3489H79.5931C79.9134 23.4786 80.0893 22.538 80.0893 21.5565C80.0893 17.1291 76.5274 13.5271 72.1492 13.5271C67.771 13.5271 64.2092 17.1291 64.2092 21.5565C64.2092 22.538 64.385 23.4786 64.7052 24.3489H23.41C23.7303 23.4786 23.9062 22.538 23.9062 21.5565C23.9062 19.4306 23.0833 17.4963 21.7448 16.0584H24.6808C26.4904 16.0584 28.1916 16.771 29.4711 18.065L30.1203 18.7215C31.8726 20.4935 34.2025 21.4694 36.6806 21.4694H52.5427C54.3062 21.4694 55.9643 20.7748 57.2112 19.5139L65.979 10.6476H72.1491C78.0975 10.6476 82.9366 15.5413 82.9366 21.5565L82.9369 24.2619ZM15.966 27.0543C12.9682 27.0543 10.5291 24.5879 10.5291 21.5562C10.5291 18.5247 12.9682 16.0584 15.966 16.0584C18.964 16.0584 21.4031 18.5248 21.4031 21.5565C21.4031 24.588 18.9641 27.0543 15.966 27.0543ZM66.7123 21.5562C66.7123 24.5879 69.1513 27.0543 72.1492 27.0543C75.1471 27.0543 77.5862 24.588 77.5862 21.5565C77.5862 18.5248 75.1471 16.0584 72.1492 16.0584C69.1513 16.0584 66.7123 18.5247 66.7123 21.5562ZM14.7078 21.5565C14.7078 20.8575 15.2682 20.2908 15.9594 20.2908C16.6506 20.2908 17.2176 20.8575 17.2176 21.5565C17.2176 22.2554 16.6639 22.8221 15.9727 22.8221H15.9594C15.2682 22.8221 14.7078 22.2554 14.7078 21.5565ZM72.1426 20.2908C71.4513 20.2908 70.8909 20.8575 70.8909 21.5565C70.8909 22.2554 71.4513 22.8221 72.1426 22.8221H72.1559C72.8471 22.8221 73.4007 22.2554 73.4007 21.5565C73.4007 20.8575 72.8338 20.2908 72.1426 20.2908Z" fill="#11172B"></path></svg>