<svg width="132" height="100" viewBox="0 0 132 100" fill="none" xmlns="http://www.w3.org/2000/svg">
<g clip-path="url(#clip0_195_157)">
<path d="M82.087 14.3893C87.7406 20.4714 93.3776 26.57 99.0312 32.6521C98.7509 32.6685 98.4872 32.7015 98.207 32.685C80.7849 32.2894 80.8014 32.2894 80.8508 49.6291C80.8838 62.6339 80.8508 75.6387 80.8508 88.4951C86.8505 88.4951 91.8942 88.4951 99.0147 88.4951C99.0147 69.5566 99.0147 51.0961 99.0147 32.6191C102.756 36.064 106.663 39.3605 110.206 42.9866C113.388 46.2337 116.173 49.8599 119.14 53.3048C118.003 54.541 116.865 55.7607 115.728 56.9969C117.706 57.4913 119.667 57.9693 120.821 58.2495C120.821 61.5625 120.821 64.6118 120.821 67.6776C108.723 84.9843 94.0204 97.5935 71.159 97.0002C64.6979 96.8353 58.1872 98.566 51.7096 99.4725C40.9135 100.972 31.1722 99.6868 24.711 89.4841C29.5075 89.1709 34.3039 88.8578 39.3641 88.5446C39.3641 78.6056 39.3641 69.2105 39.3641 59.8648C36.6609 59.8648 34.4523 60.2604 32.4579 59.7989C24.5957 57.9364 22.9309 61.8922 23.2441 68.6501C23.5573 75.4574 23.2771 82.2812 23.2606 89.0885C10.091 85.5942 1.96504 60.8373 5.34398 47.2392C9.06905 45.8546 13.0414 44.8821 16.5027 43.0031C34.3863 33.2454 52.1216 23.224 69.9723 13.4004C71.4557 12.5927 73.2853 12.4279 76.2522 11.6202C74.4226 15.609 73.4007 17.8342 72.3788 20.0758C72.7579 20.389 73.137 20.6857 73.5161 20.9988C76.3511 18.7902 79.2191 16.5815 82.087 14.3893ZM68.835 44.9316C61.7969 44.9316 56.5555 44.9316 50.0613 44.9316C50.0613 56.42 49.88 67.2655 50.1108 78.1111C50.3415 88.5281 54.4622 91.5115 64.8957 88.8578C66.4615 88.4622 68.6372 86.1711 68.6702 84.7206C68.9669 71.5181 68.835 58.299 68.835 44.9316Z" fill="#E6A676"/>
<path d="M82.087 14.3893C79.2191 16.598 76.3511 18.7901 73.4996 20.9988C73.1205 20.6856 72.7414 20.389 72.3623 20.0758C73.3842 17.8342 74.4226 15.5925 76.2357 11.6202C73.2688 12.4279 71.4393 12.5927 69.9558 13.4003C52.1216 23.224 34.3864 33.2454 16.5027 43.0031C13.0414 44.8821 9.08555 45.8546 5.34399 47.2391C5.67365 46.1842 6.0033 45.1294 6.33295 44.0745C7.10763 44.0415 8.03066 44.2723 8.62403 43.9426C25.8978 34.086 43.1551 24.18 60.4124 14.2739C63.676 12.3949 66.923 10.4664 70.1866 8.57092C69.9393 8.027 69.6756 7.49955 69.4284 6.95563C67.401 7.15342 65.3572 7.36769 63.3298 7.56548C63.4287 6.09853 63.2474 3.46131 63.6924 3.34593C69.1647 1.9614 74.6863 0.576856 80.2904 0.0329302C82.8452 -0.214309 85.5978 1.41747 88.2515 2.19215C87.2955 5.07661 86.5209 8.04348 85.2847 10.7961C84.6583 12.1806 83.1749 13.2025 82.087 14.3893ZM71.8019 8.09293C72.3128 7.89514 72.8073 7.69734 73.3018 7.49955C73.0381 7.1699 72.7908 6.62597 72.4942 6.59301C72.0656 6.54356 71.5876 6.85673 71.1261 7.02156C71.3404 7.36769 71.5711 7.71383 71.8019 8.09293Z" fill="#171412"/>
<path d="M63.3133 7.56542C65.3407 7.36763 67.3845 7.15336 69.4119 6.95557C69.6591 7.49949 69.9229 8.02694 70.1701 8.57086C66.9065 10.4664 63.676 12.3948 60.3959 14.2738C43.1386 24.1799 25.8978 34.0859 8.60755 43.9425C8.01418 44.2887 7.09115 44.0414 6.31647 44.0744C9.11851 32.8333 17.4917 25.9106 26.9362 21.3284C38.5565 15.6749 51.1492 12.0487 63.3133 7.56542Z" fill="#E6A676"/>
<path d="M23.2935 89.0885C23.31 82.2647 23.5902 75.4409 23.2771 68.6501C22.9639 61.8757 24.6286 57.9364 32.4908 59.7989C34.4852 60.2769 36.6939 59.8649 39.397 59.8649C39.397 69.2105 39.397 78.6056 39.397 88.5446C34.3369 88.8743 29.5404 89.1874 24.744 89.4841C24.1836 89.5665 23.7056 89.4347 23.2935 89.0885ZM28.6669 63.6723C28.6669 71.6499 28.6669 79.1495 28.6669 87.1601C31.5184 86.8799 33.7765 86.6656 36.0346 86.4513C36.0346 78.1935 36.0346 70.6115 36.0346 62.601C33.2655 62.9966 30.9415 63.3427 28.6669 63.6723Z" fill="#171412"/>
<path d="M9.2174 18.8066C9.2174 17.2737 9.2174 15.5431 9.2174 13.5322C6.59666 13.1531 4.15723 12.8234 0.250854 12.263C5.7066 8.70277 9.86022 5.98314 13.6512 3.49426C16.2555 5.17549 19.4366 7.23582 21.9585 8.86759C18.3817 11.6532 14.0798 15.0156 9.2174 18.8066Z" fill="#171412"/>
<path d="M120.821 67.6941C120.821 64.6283 120.821 61.579 120.821 58.266C119.667 57.9858 117.706 57.4913 115.728 57.0133C116.865 55.7772 118.003 54.5574 119.14 53.3212C122.14 51.1785 125.14 49.0358 127.826 47.1238C129.062 48.9039 130.777 51.3763 131.749 52.7773C129.442 56.3376 127.249 59.9143 124.843 63.3427C123.706 64.958 122.173 66.2601 120.821 67.6941Z" fill="#171412"/>
<path d="M121.958 15.6585C118.448 14.4882 115.036 13.3509 111.789 12.2631C114.558 8.78524 117.788 4.747 121.101 0.593384C123.294 2.43944 126.26 4.94479 129.112 7.35125C127.019 9.7742 124.25 13.0048 121.958 15.6585Z" fill="#272727"/>
<path d="M68.835 44.9315C68.835 58.2989 68.9504 71.5015 68.6702 84.7041C68.6372 86.1545 66.4615 88.4456 64.8957 88.8412C54.4622 91.4949 50.3415 88.5115 50.1108 78.0945C49.88 67.249 50.0613 56.4034 50.0613 44.915C56.5555 44.9315 61.7969 44.9315 68.835 44.9315ZM54.8413 48.3599C54.8413 61.5295 54.8413 73.9244 54.8413 86.4842C58.1378 86.4842 60.9563 86.4842 64.055 86.4842C64.055 73.908 64.055 61.7768 64.055 49.0522C60.9233 48.8214 58.1378 48.6071 54.8413 48.3599Z" fill="#171412"/>
<path d="M99.0147 32.6355C99.0147 51.096 99.0147 69.573 99.0147 88.5116C91.8942 88.5116 86.834 88.5116 80.8508 88.5116C80.8508 75.6386 80.8673 62.6339 80.8508 49.6456C80.8179 32.2894 80.8014 32.2894 98.207 32.7014C98.4707 32.685 98.7509 32.652 99.0147 32.6355ZM93.5095 86.682C93.5095 70.1005 93.5095 53.8321 93.5095 37.366C90.3283 37.2012 87.6746 37.0693 84.8891 36.921C84.8891 53.453 84.8891 69.9192 84.8891 86.6655C87.9548 86.682 90.5921 86.682 93.5095 86.682Z" fill="#171412"/>
<path d="M71.8019 8.09292C71.5711 7.7303 71.3404 7.36768 71.1096 7.02155C71.5711 6.85672 72.0491 6.54355 72.4777 6.593C72.7744 6.62597 73.0216 7.18637 73.2853 7.49954C72.8073 7.68085 72.3128 7.87864 71.8019 8.09292Z" fill="#E6A676"/>
<path d="M28.6669 63.6723C30.9415 63.3427 33.2655 62.9965 36.0346 62.601C36.0346 70.6115 36.0346 78.1935 36.0346 86.4513C33.7765 86.6656 31.5348 86.8798 28.6669 87.16C28.6669 79.133 28.6669 71.6334 28.6669 63.6723Z" fill="#E6A676"/>
<path d="M54.8413 48.36C58.1543 48.6072 60.9398 48.8215 64.0551 49.0687C64.0551 61.7933 64.0551 73.9245 64.0551 86.5007C60.9563 86.5007 58.1378 86.5007 54.8413 86.5007C54.8413 73.908 54.8413 61.5296 54.8413 48.36Z" fill="#E6A676"/>
<path d="M93.5095 86.682C90.5921 86.682 87.9548 86.682 84.8891 86.682C84.8891 69.9357 84.8891 53.4696 84.8891 36.9375C87.6746 37.0858 90.3283 37.2177 93.5095 37.3825C93.5095 53.8322 93.5095 70.1005 93.5095 86.682Z" fill="#E6A676"/>
</g>
<defs>
<clipPath id="clip0_195_157">
<rect width="131.498" height="100" fill="white" transform="translate(0.250854)"/>
</clipPath>
</defs>
</svg>
