<svg width="110" height="100" viewBox="0 0 110 100" fill="none" xmlns="http://www.w3.org/2000/svg">
<g clip-path="url(#clip0_195_128)">
<path d="M84.9338 23.1974C92.6713 25.892 100.273 28.7822 104.007 37.0165C97.0368 37.0767 90.052 36.9412 83.0973 37.3175C81.2758 37.4229 78.1598 38.9584 77.9942 40.1777C76.9555 47.4033 76.5942 54.7344 76.0222 61.9751C86.5144 61.9751 95.5616 61.9751 103.796 61.9751C104.428 54.0871 105 46.9517 105.557 39.8164C111.744 46.5152 109.29 54.644 107.755 61.6439C103.058 83.0348 83.4736 98.8259 61.7816 99.6538C57.1452 99.8345 52.4485 98.5399 47.7819 97.9076C48.1733 97.2754 49.0615 96.2969 48.8959 96.0711C42.3928 86.9036 35.7843 77.8113 28.2877 67.4545C21.7846 77.7661 16.5159 86.0907 11.2623 94.4303C7.12259 91.4497 0.273273 91.0132 0.438861 83.8778C0.724876 71.7146 17.6449 39.7712 22.718 35.3756C22.5373 42.2099 23.3201 48.5323 31.5242 50.399C39.8187 52.2807 46.9841 49.4807 48.6249 43.8959C50.7625 36.61 46.5626 30.393 37.5155 27.4575C36.1005 27.0059 34.6553 26.6296 33.2253 26.2081C39.1111 18.2298 47.9626 18.5158 56.4828 17.8835C55.0377 21.1652 53.5926 24.4468 51.8162 28.4511C62.173 27.8339 71.3406 27.4425 80.4629 26.5844C82.0435 26.449 83.4435 24.3866 84.9338 23.1974ZM64.2955 44.4228C66.102 45.2507 67.2611 45.7776 68.4051 46.3195C68.7514 45.9883 69.0825 45.6421 69.4288 45.3109C67.803 42.5411 66.1772 39.7562 64.0246 36.0832C60.6827 39.2745 58.1387 41.683 55.6097 44.1066C56.3172 44.3023 57.0247 44.5131 57.7323 44.7088C58.1086 46.6657 59.4333 49.1796 58.6806 50.5043C55.1431 56.6913 51.0184 62.5471 47.1196 68.5233C46.3368 69.7125 45.5992 70.9469 44.8465 72.1512C55.7452 66.1148 60.9537 56.2849 64.2955 44.4228Z" fill="#CFA9B5"/>
<path d="M11.2472 94.4452C16.5159 86.1056 21.7696 77.766 28.2727 67.4695C35.7693 77.8262 42.3777 86.9336 48.8808 96.0861C49.0464 96.3269 48.1583 97.2903 47.7669 97.9226C34.9112 98.6 22.0556 99.2774 8.25159 100C9.50102 97.6968 10.3741 96.071 11.2472 94.4452Z" fill="#171412"/>
<path d="M84.9338 23.1974C83.4435 24.3866 82.0435 26.4489 80.4478 26.5994C71.3255 27.4424 62.1579 27.8489 51.8011 28.4661C53.5775 24.4468 55.0226 21.1802 56.4677 17.8985C59.7795 12.1331 63.0762 6.38266 66.7492 0C73.1168 8.12886 79.0328 15.6706 84.9338 23.1974ZM60.7881 17.2512C59.5386 19.4641 58.2892 21.692 56.6785 24.5522C64.9579 23.95 71.9728 23.4533 79.6952 22.8963C77.4071 20.0361 75.7211 17.9437 74.0351 15.8362C71.8373 12.7503 69.6395 9.66431 66.8998 5.85579C64.4912 10.3417 62.6396 13.804 60.7881 17.2512Z" fill="#171412"/>
<path d="M105.557 39.8314C104.985 46.9668 104.413 54.087 103.796 61.9901C95.5616 61.9901 86.5145 61.9901 76.0222 61.9901C76.6093 54.7644 76.9555 47.4334 77.9942 40.1927C78.1749 38.9734 81.2759 37.4379 83.0973 37.3326C90.052 36.9412 97.0368 37.0917 104.007 37.0315C104.518 37.9498 105.045 38.8831 105.557 39.8314ZM79.7705 58.859C87.0714 58.859 93.6648 58.859 100.68 58.859C100.68 52.6419 100.68 46.7861 100.68 40.0121C94.0713 40.4035 87.7488 40.7647 80.9899 41.1561C80.7038 44.2421 80.4329 46.6807 80.2673 49.1345C80.0415 52.2957 79.9361 55.4569 79.7705 58.859Z" fill="#171412"/>
<path d="M33.2253 26.208C34.6553 26.6145 36.1005 26.9908 37.5155 27.4574C46.5626 30.3929 50.7625 36.6099 48.6249 43.8958C46.9841 49.4806 39.8187 52.2806 31.5242 50.3989C23.3352 48.5473 22.5373 42.2098 22.718 35.3756C26.2254 32.3197 29.7178 29.2639 33.2253 26.208ZM35.9951 47.4334C42.5433 47.5839 45.3734 45.5667 45.4938 40.6744C45.6293 35.2852 40.8875 30.7843 34.6553 30.5585C29.5522 30.3778 26.6469 32.967 26.2405 38.025C25.7437 44.1668 29.0555 47.2678 35.9951 47.4334Z" fill="#171412"/>
<path d="M64.2955 44.4227C60.9536 56.2848 55.7451 66.1147 44.8464 72.1512C45.5991 70.9469 46.3367 69.7125 47.1195 68.5233C51.0183 62.5471 55.143 56.6913 58.6805 50.5043C59.4332 49.1796 58.1085 46.6657 57.7322 44.7088C57.0247 44.5131 56.3172 44.3023 55.6096 44.1066C58.1537 41.683 60.6827 39.2745 64.0245 36.0831C66.1772 39.7562 67.8029 42.526 69.4287 45.3109C69.0825 45.6421 68.7513 45.9883 68.4051 46.3195C67.261 45.7775 66.1019 45.2507 64.2955 44.4227Z" fill="#171412"/>
<path d="M74.0201 15.8362C75.7061 17.9437 77.392 20.0361 79.6802 22.8962C71.9577 23.4532 64.9428 23.965 56.6635 24.5521C58.2742 21.692 59.5236 19.4791 60.773 17.2512C65.1988 16.7845 69.6094 16.3028 74.0201 15.8362Z" fill="#CFA9B5"/>
<path d="M79.7705 58.8589C79.9361 55.4418 80.0565 52.2957 80.2522 49.1495C80.4178 46.6958 80.6888 44.2571 80.9748 41.1712C87.7488 40.7798 94.0713 40.4034 100.665 40.0271C100.665 46.7861 100.665 52.6569 100.665 58.874C93.6498 58.859 87.0564 58.8589 79.7705 58.8589Z" fill="#CFA9B5"/>
<path d="M35.9951 47.4334C29.0554 47.2829 25.7437 44.1668 26.2404 38.025C26.6469 32.9671 29.5672 30.3779 34.6553 30.5585C40.8724 30.7843 45.6293 35.2853 45.4938 40.6744C45.3733 45.5518 42.5433 47.5689 35.9951 47.4334Z" fill="#CFA9B5"/>
</g>
<defs>
<clipPath id="clip0_195_128">
<rect width="109.122" height="100" fill="white" transform="translate(0.438843)"/>
</clipPath>
</defs>
</svg>
