<svg xmlns="http://www.w3.org/2000/svg" xmlns:xlink="http://www.w3.org/1999/xlink" version="1.1" x="0px" y="0px" viewBox="0 0 256 256" enable-background="new 0 0 256 256" xml:space="preserve"><metadata> Svg Vector Icons : http://www.onlinewebfonts.com/icon </metadata><g><g><path fill="#fff" d="M116.9,194.4h22.1c6.1,0,11.1-5,11.1-11.1V91.1c0-6.1-5-11.1-11.1-11.1h-22.1c-6.1,0-11.1,5-11.1,11.1v92.2C105.9,189.4,110.8,194.4,116.9,194.4z M179.6,194.4h22.1c6.1,0,11.1-5,11.1-11.1V39.5c0-6.1-5-11.1-11.1-11.1h-22.1c-6.1,0-11.1,5-11.1,11.1v143.8C168.6,189.4,173.5,194.4,179.6,194.4z M54.3,194.4h22.1c6.1,0,11.1-5,11.1-11.1v-40.6c0-6.1-5-11.1-11.1-11.1H54.3c-6.1,0-11.1,5-11.1,11.1v40.6C43.2,189.4,48.1,194.4,54.3,194.4z M236.8,205.4H19.2c-5.1,0-9.2,4.1-9.2,9.2v3.7c0,5.1,4.1,9.2,9.2,9.2h217.6c5.1,0,9.2-4.1,9.2-9.2v-3.7C246,209.6,241.9,205.4,236.8,205.4z"></path></g></g></svg>