<svg xmlns="http://www.w3.org/2000/svg" xmlns:xlink="http://www.w3.org/1999/xlink" version="1.1" x="0px" y="0px" viewBox="0 0 98 122.5" style="enable-background:new 0 0 98 98;" xml:space="preserve"><path fill="#fff" d="M92.702,49.301L80.556,20.729c-0.836-1.969-3.122-2.89-5.089-2.053l-5.539,2.355c-0.951,0.404-1.689,1.158-2.078,2.12  c-0.389,0.963-0.38,2.017,0.025,2.968l0.295,0.694c-5.329,1.917-8.32,2.723-15.877,1.65c-2.104-0.299-5.157,0.494-9.494,2.478  c-0.175-0.065-0.365-0.097-0.563-0.082c-3.067,0.237-5.154-0.595-9.729-2.42c-0.872-0.348-1.829-0.729-2.885-1.14l0.502-1.18  c0.405-0.951,0.414-2.005,0.025-2.969c-0.389-0.963-1.127-1.716-2.078-2.12l-5.539-2.355c-0.952-0.404-2.006-0.413-2.968-0.024  c-0.963,0.389-1.716,1.127-2.12,2.078L5.298,49.301c-0.405,0.951-0.414,2.006-0.025,2.969c0.389,0.963,1.127,1.716,2.078,2.12  l5.539,2.355c0.494,0.21,1.007,0.309,1.513,0.309c1.284,0,2.513-0.646,3.238-1.746c0.244,0.157,0.457,0.295,0.636,0.41  c0.953,0.614,0.953,0.614,1.237,0.912c0.221,0.232,0.56,0.586,1.231,1.224l-1.154,1.998c-0.583,1.011-0.737,2.192-0.434,3.325  c0.304,1.133,1.028,2.079,2.038,2.662l0.33,0.191c0.809,0.466,1.704,0.645,2.574,0.569c0.02,0.281,0.067,0.562,0.142,0.84  c0.303,1.133,1.027,2.079,2.038,2.663l0.33,0.191c1.011,0.583,2.192,0.737,3.325,0.434c0.005-0.001,0.011-0.003,0.016-0.004  c0.001,0.005,0.003,0.011,0.005,0.017c0.303,1.133,1.027,2.079,2.038,2.663l0.33,0.191c1.294,0.747,2.928,0.559,4.283-0.134  c0.366,0.788,0.97,1.474,1.778,1.941l0.33,0.191c0.689,0.397,1.441,0.586,2.184,0.586c0.874,0,1.73-0.269,2.458-0.759l2.664,1.946  c2.07,1.512,3.896,2.27,5.455,2.27c0.652,0,1.257-0.133,1.814-0.398c1.46-0.696,2.169-2.114,2.517-3.349  c0.677,0.249,1.364,0.378,2.034,0.378c0.8,0,1.578-0.179,2.291-0.544c1.549-0.792,2.566-2.322,2.871-4.208  c0.144,0.01,0.287,0.031,0.432,0.031c1.175,0,2.373-0.314,3.387-0.944c1.602-0.996,2.497-2.591,2.597-4.5  c0.199,0.021,0.398,0.047,0.6,0.047c0.298,0,0.598-0.023,0.899-0.07c1.514-0.236,2.843-1.044,3.741-2.274  c0.899-1.23,1.265-2.742,1.029-4.256c-0.082-0.528-0.238-1.031-0.453-1.503c0.748-0.245,1.497-0.548,2.231-0.986  c0.96-0.572,1.832-1.339,2.669-2.143c0.673,1.338,2.031,2.14,3.461,2.14c0.505,0,1.02-0.099,1.513-0.309l5.539-2.355  c0.952-0.404,1.69-1.157,2.078-2.121C93.115,51.307,93.107,50.252,92.702,49.301z M13.933,54.291l-5.539-2.355  c-0.296-0.125-0.525-0.361-0.647-0.663c-0.122-0.303-0.12-0.632,0.005-0.928l12.147-28.572c0.125-0.295,0.361-0.525,0.663-0.647  c0.149-0.06,0.305-0.09,0.459-0.09c0.159,0,0.318,0.032,0.468,0.096l5.539,2.355c0.296,0.125,0.525,0.361,0.647,0.663  c0.122,0.302,0.12,0.632-0.005,0.927L15.525,53.649C15.264,54.264,14.551,54.552,13.933,54.291z M25.438,62.793  c-0.09,0.086-0.169,0.186-0.235,0.299c-0.473,0.819-1.524,1.102-2.344,0.629l-0.33-0.191c-0.394-0.227-0.677-0.598-0.796-1.043  c-0.119-0.445-0.06-0.907,0.168-1.301l3.164-5.48c0.227-0.394,0.598-0.677,1.043-0.796c0.15-0.04,0.302-0.06,0.452-0.06  c0.296,0,0.588,0.077,0.849,0.228l0.33,0.19c0.394,0.228,0.676,0.598,0.796,1.043c0.119,0.445,0.06,0.907-0.168,1.301  c-0.09,0.156-0.145,0.323-0.168,0.491c-0.131,0.166-0.252,0.343-0.36,0.531L25.438,62.793z M30.666,66.937  c-0.15,0.107-0.28,0.248-0.379,0.418c-0.227,0.394-0.598,0.677-1.043,0.796c-0.445,0.119-0.908,0.059-1.301-0.168l-0.33-0.19  c-0.394-0.228-0.676-0.598-0.796-1.043c-0.119-0.445-0.06-0.907,0.168-1.301l3.164-5.48c0.317-0.55,0.896-0.858,1.49-0.858  c0.29,0,0.585,0.074,0.854,0.229l0.33,0.191c0.394,0.227,0.677,0.598,0.796,1.043c0.119,0.445,0.06,0.907-0.168,1.301  c-0.098,0.17-0.154,0.352-0.172,0.535L30.666,66.937z M36.781,69.412c-0.157,0.272-0.282,0.555-0.375,0.843  c-0.587,0.851-2.068,1.421-2.747,1.028l-0.33-0.19c-0.394-0.228-0.676-0.598-0.796-1.043c-0.119-0.445-0.06-0.907,0.168-1.301  l3.164-5.48c0.317-0.55,0.895-0.858,1.489-0.858c0.291,0,0.585,0.074,0.855,0.23l0.33,0.191c0.819,0.473,1.102,1.525,0.628,2.344  c-0.064,0.113-0.111,0.23-0.14,0.35L36.781,69.412z M40.05,73.28l-0.33-0.191l-0.001-0.001c-0.676-0.39-0.986-1.174-0.809-1.896  c0.008-0.026,0.015-0.052,0.021-0.078c0.038-0.127,0.09-0.251,0.159-0.37l3.164-5.481c0.227-0.394,0.598-0.677,1.043-0.796  c0.446-0.12,0.907-0.06,1.301,0.168l0.33,0.191c0.394,0.227,0.676,0.598,0.796,1.043c0.119,0.445,0.06,0.907-0.168,1.301  l-3.163,5.48C41.92,73.471,40.869,73.753,40.05,73.28z M72.506,62.229c-0.478,0.655-1.188,1.086-1.998,1.212  c-0.813,0.126-1.618-0.068-2.272-0.546l-7.396-5.403c-0.596-0.435-1.43-0.305-1.864,0.29c-0.434,0.595-0.305,1.429,0.29,1.863  l7.396,5.403c0.018,0.013,0.038,0.022,0.057,0.035c0.203,1.465-0.24,2.589-1.304,3.251c-1.159,0.721-2.834,0.727-3.81,0.013  l-6.326-4.621c-0.596-0.435-1.43-0.304-1.864,0.29c-0.434,0.595-0.305,1.429,0.29,1.863l6.326,4.621  c0.123,0.09,0.261,0.157,0.392,0.235c-0.102,1.212-0.645,2.171-1.504,2.609c-0.947,0.484-2.16,0.274-3.33-0.581l-4.324-3.158  c-0.596-0.435-1.43-0.304-1.864,0.29c-0.434,0.595-0.305,1.429,0.29,1.863l3.704,2.705c-0.153,0.987-0.535,2.02-1.252,2.361  c-0.91,0.434-2.525-0.142-4.548-1.618l-2.531-1.849l2.803-4.855c0.583-1.011,0.738-2.192,0.434-3.326  c-0.303-1.133-1.028-2.079-2.038-2.662l-0.33-0.19c-1.012-0.584-2.193-0.738-3.326-0.435c-0.365,0.098-0.71,0.239-1.03,0.42  c-0.371-0.725-0.949-1.356-1.705-1.792l-0.33-0.19c-1.051-0.607-2.253-0.728-3.341-0.431c-0.001-0.005-0.003-0.01-0.004-0.015  c-0.304-1.133-1.028-2.079-2.038-2.662l-0.33-0.191c-0.809-0.467-1.707-0.647-2.574-0.569c-0.02-0.281-0.067-0.562-0.142-0.84  c-0.303-1.133-1.027-2.079-2.038-2.663l-0.33-0.19c-1.011-0.584-2.191-0.738-3.325-0.434c-1.133,0.304-2.079,1.028-2.662,2.039  l-0.637,1.102c-0.325-0.319-0.529-0.532-0.673-0.683c-0.503-0.529-0.619-0.604-1.725-1.316c-0.252-0.162-0.572-0.368-0.96-0.621  l9.819-23.099c1.079,0.419,2.052,0.807,2.939,1.161c2.998,1.196,5.131,2.041,7.249,2.421c-0.609,0.607-1.15,1.309-1.732,2.07  l-0.162,0.212c-0.794,1.037-2.281,2.947-3.325,4.095c-0.194,0.213-0.37,0.397-0.529,0.563c-0.662,0.692-1.235,1.29-1.477,2.373  c-0.291,1.301-0.09,3.184,1.013,4.456c0.95,1.097,2.661,1.753,4.487,1.746c1.618-0.003,2.858-0.547,4.452-1.486  c0.279-0.164,0.576-0.346,0.889-0.537c1.366-0.834,3.067-1.872,4.737-2.332c5.953-1.637,14.403,5.202,20.571,10.197  c1.505,1.219,2.927,2.37,4.149,3.263c0.655,0.478,1.086,1.188,1.212,1.998C73.179,60.767,72.985,61.574,72.506,62.229z M76.1,54.766  c-0.819,0.488-1.729,0.775-2.69,1.035c-1.169-0.854-2.563-1.983-4.04-3.179c-6.618-5.359-15.683-12.7-22.958-10.696  c-2.032,0.559-3.909,1.706-5.418,2.627c-0.3,0.183-0.585,0.357-0.853,0.515c-1.433,0.844-2.187,1.116-3.103,1.117  c-0.003,0-0.006,0-0.009,0c-1.042,0-2.028-0.331-2.458-0.826c-0.442-0.51-0.565-1.501-0.425-2.127  c0.073-0.329,0.198-0.481,0.801-1.111c0.173-0.181,0.364-0.381,0.575-0.613c1.11-1.221,2.65-3.198,3.469-4.268l0.164-0.215  c0.955-1.25,1.645-2.153,2.609-2.633c4.898-2.444,8.316-3.55,10.155-3.289c8.259,1.174,11.618,0.217,17.297-1.831l9.785,23.019  C78.016,53.27,77.077,54.184,76.1,54.766z M90.253,51.272c-0.121,0.302-0.351,0.538-0.647,0.663l-5.539,2.355  c-0.616,0.262-1.33-0.026-1.591-0.642L70.33,25.076c-0.125-0.295-0.128-0.625-0.005-0.927c0.122-0.302,0.351-0.538,0.647-0.663  l5.539-2.355c0.155-0.065,0.315-0.097,0.473-0.097c0.472,0,0.923,0.277,1.119,0.738l12.145,28.572  C90.373,50.641,90.375,50.97,90.253,51.272z"/></svg>