<svg xmlns="http://www.w3.org/2000/svg" width="68" height="43" viewBox="0 0 68 43" fill="none">
    <path
        d="M65.8246 26.2457C65.5518 25.7832 64.9551 25.6278 64.4899 25.8998C64.0246 26.1717 63.8701 26.7674 64.143 27.2299C64.932 28.5684 65.3483 30.0984 65.3483 31.6542C65.3483 36.4799 61.4078 40.4056 56.5654 40.4056C51.7221 40.4056 47.7816 36.4799 47.7816 31.6551C47.7816 30.4267 48.0397 29.2205 48.5336 28.1096L51.1264 30.5655C51.0542 30.9235 51.0172 31.287 51.0172 31.6542C51.0172 34.7021 53.5055 37.182 56.5654 37.182C59.6244 37.182 62.1126 34.703 62.1126 31.6542C62.1126 28.6063 59.6244 26.1273 56.5654 26.1273C56.1029 26.1273 55.6459 26.1856 55.201 26.2975L52.6092 23.8417C53.8302 23.2256 55.177 22.9028 56.5654 22.9028C58.6503 22.9028 60.6724 23.6456 62.2597 24.9951C62.4438 25.1505 62.6685 25.2273 62.8924 25.2273C63.168 25.2273 63.4428 25.1117 63.6352 24.886C63.9848 24.4781 63.9367 23.8639 63.526 23.5161C61.5863 21.8668 59.1138 20.9594 56.5645 20.9594C54.6358 20.9594 52.771 21.4681 51.1245 22.4347L49.9239 21.297C51.7027 20.2897 53.758 19.7134 55.9456 19.7134C56.5931 19.7134 57.2462 19.7652 57.8863 19.866C58.1712 19.9123 58.4607 19.829 58.6781 19.6412L61.7574 16.9846C62.2477 16.5619 62.6195 16.0337 62.8489 15.4445C63.6722 13.3392 63.7119 9.36357 62.1441 7.57925C57.8428 2.68507 51.4612 0.275448 44.1741 0.794373C42.3851 0.922023 41.3528 2.89135 42.2751 4.43517L42.7033 5.1539H40.6683C40.1291 5.1539 39.6925 5.58865 39.6925 6.12515C39.6925 6.66165 40.1291 7.09732 40.6674 7.09732H43.8124C44.2657 8.08985 44.4803 9.16932 44.4414 10.2534C42.4841 8.51997 39.9644 7.55242 37.2838 7.55242C33.7484 7.55242 30.4924 9.24425 28.4657 12.1025H21.4459C20.8937 12.1025 20.3526 11.9129 19.9224 11.5678L12.7842 5.85412C12.6112 5.71537 12.3957 5.63952 12.1737 5.63952H6.33696C4.71821 5.63952 3.40009 6.95302 3.40009 8.5653C3.40009 9.5051 3.85796 10.394 4.62386 10.9425L6.72361 12.4447C7.16114 12.7583 7.77071 12.6584 8.08521 12.2227C8.39971 11.7861 8.29889 11.1793 7.86136 10.8658L5.76161 9.36357C5.50446 9.17857 5.35091 8.88072 5.35091 8.5653C5.35091 8.02417 5.79306 7.58387 6.33696 7.58387H11.8296L18.7005 13.0839C19.4766 13.7037 20.4515 14.0459 21.4459 14.0459H28.8302L35.1479 16.4518L38.6259 17.7764C38.4437 17.8699 36.0998 19.9178 32.2897 19.9178H30.1474C28.0014 19.9178 25.9655 21.0667 24.8712 23.0388L23.2589 21.8844L10.5069 12.7592C10.0693 12.4457 9.45976 12.5456 9.14526 12.9812C8.83076 13.4169 8.93159 14.0246 9.36911 14.3382L20.9298 22.6105L18.8272 23.899C16.8403 22.0213 14.1893 20.9575 11.4346 20.9575C5.51556 20.9584 0.700012 25.7564 0.700012 31.6542C0.700012 37.552 5.51556 42.35 11.4346 42.35C17.3546 42.35 22.1693 37.552 22.1693 31.6542C22.1693 30.7477 22.0536 29.8505 21.8261 28.9773L24.1358 27.562V34.8492C24.1358 37.6269 26.4039 39.8876 29.1919 39.8876H33.8927V40.4056H27.5287C26.9885 40.4056 26.5519 40.8404 26.5519 41.3778C26.5519 41.9143 26.9885 42.35 27.5278 42.35H34.8686C35.4069 42.35 35.8435 41.9152 35.8435 41.3787V39.8876H44.7948C45.1509 39.8876 45.4793 39.6943 45.6504 39.3835C45.8215 39.0737 45.8095 38.6944 45.6189 38.3947C44.3822 36.4503 43.7282 34.1998 43.7282 31.8873C43.7282 29.4879 44.4285 27.2494 45.6356 25.3624L47.0508 26.7036C46.2507 28.2271 45.8298 29.9226 45.8298 31.6542C45.8308 37.552 50.6472 42.35 56.5663 42.35C62.4854 42.35 67.3 37.552 67.3 31.6542C67.3 29.7524 66.7903 27.8821 65.8246 26.2457ZM60.1618 31.6542C60.1618 33.63 58.5486 35.2377 56.5654 35.2377C54.8329 35.2377 53.3825 34.0102 53.0439 32.3822L54.5285 33.7882C55.0798 34.3117 55.8032 34.5994 56.5654 34.5994C57.3711 34.5994 58.1518 34.2664 58.7077 33.6837C59.2516 33.1139 59.5402 32.3665 59.5217 31.5802C59.5013 30.794 59.1748 30.0623 58.6022 29.5202L57.1176 28.1142C58.84 28.3788 60.1618 29.8662 60.1618 31.6542ZM60.9998 9.36172C61.7352 10.9749 61.5086 13.7323 60.986 14.8451C59.6697 14.6231 58.6642 13.478 58.6642 12.1043C58.6642 10.7261 59.6752 9.58002 60.9998 9.36172ZM37.2828 9.4977C39.8775 9.4977 42.2871 10.6003 43.9706 12.5409C42.9919 15.0717 41.0781 15.9449 40.5268 16.4195L32.3887 13.3207L30.5322 12.6131C32.2027 10.6428 34.6484 9.4977 37.2828 9.4977ZM24.208 24.9572C24.1932 25.0497 24.1784 25.1533 24.1663 25.2606L15.4954 30.5766L15.4861 30.5821L12.5659 32.372C12.0914 32.6569 11.4716 32.5043 11.1858 32.0316C11.0424 31.7948 11.0036 31.5164 11.0776 31.2491C11.146 31.0002 11.3061 30.7903 11.5355 30.6524L14.5954 28.7765L14.6046 28.7719L19.1695 25.9738L19.1741 25.9701L22.6493 23.8407L24.208 24.9572ZM9.51526 33.0352C10.0693 33.951 11.0461 34.4579 12.0498 34.4579C12.5715 34.4579 13.1006 34.321 13.5806 34.0324L14.5547 33.4358C13.9331 34.5115 12.7694 35.2377 11.4356 35.2377C9.45236 35.2377 7.83916 33.63 7.83916 31.6542C7.83916 29.6784 9.45236 28.0717 11.4356 28.0717C11.6122 28.0717 11.7871 28.0856 11.9591 28.1105L10.5207 28.9921C9.86769 29.3843 9.39779 30.0031 9.19614 30.7348C8.98246 31.509 9.09901 32.347 9.51526 33.0352ZM20.2175 31.6542C20.2175 36.4799 16.277 40.4056 11.4337 40.4056C6.59041 40.4056 2.64991 36.4799 2.64991 31.6551C2.64991 26.8285 6.59041 22.9028 11.4337 22.9028C13.5113 22.9028 15.5157 23.6446 17.0901 24.9637L14.0903 26.8026C13.2791 26.3586 12.3726 26.1273 11.4337 26.1273C8.37474 26.1273 5.88649 28.6063 5.88649 31.6542C5.88649 34.7021 8.37474 37.182 11.4337 37.182C14.3937 37.182 16.8172 34.8612 16.9735 31.9511L20.0677 30.0549C20.1666 30.5812 20.2175 31.115 20.2175 31.6542ZM43.1436 37.9442H29.1919C27.4797 37.9442 26.0866 36.5549 26.0866 34.8492V25.9072C26.0866 23.8861 27.5805 22.2285 29.4851 21.9167C31.2241 21.6272 35.1276 22.666 39.4751 19.5617C42.5516 17.3657 45.3424 15.9634 46.2072 11.8453C46.5421 10.2488 46.4329 8.61432 45.9103 7.09825H47.0666C47.6049 7.09825 48.0415 6.6635 48.0415 6.12607C48.0415 5.58957 47.6049 5.1539 47.0666 5.1539H44.9742L43.9521 3.44172C43.7763 3.14572 43.966 2.75815 44.3138 2.73317C50.3938 2.30027 55.7643 4.07535 59.6123 7.7513C57.9103 8.4691 56.7134 10.1507 56.7134 12.1043C56.7134 14.0015 57.8419 15.6406 59.4653 16.3908L57.7374 17.8819C57.1435 17.8079 56.5432 17.769 55.9466 17.769C48.1414 17.769 41.7765 24.0849 41.7765 31.8873C41.7765 33.9963 42.2464 36.06 43.1446 37.9433L43.1436 37.9442ZM48.2755 22.419L50.3318 24.3671L50.3337 24.3689L57.2573 30.929C57.4515 31.1131 57.5625 31.3619 57.569 31.6292C57.5755 31.8966 57.4774 32.1509 57.2924 32.3443C57.101 32.545 56.842 32.656 56.5635 32.656C56.3045 32.656 56.0594 32.5579 55.8716 32.3804L48.9499 25.8221L48.9434 25.8165L46.8187 23.8028C47.2654 23.3033 47.7529 22.8399 48.2755 22.419Z"
        fill="#EB3500"></path>
</svg>