<svg width="130" height="100" viewBox="0 0 130 100" fill="none" xmlns="http://www.w3.org/2000/svg">
<g clip-path="url(#clip0_195_142)">
<path d="M14.8156 35.757C14.8156 35.757 -8.70037 76.765 3.92696 85.3179C16.5543 93.8708 49.2378 100 62.3745 99.9825C75.4935 99.9649 115.378 97.2427 127.32 61.9424C139.262 26.6421 105.876 2.52899 75.5287 3.70567C45.1809 4.88235 14.8156 35.757 14.8156 35.757Z" fill="#A7B592"/>
<path d="M115.641 22.4974C84.0815 24.236 52.5395 25.9747 20.98 27.7309C18.6091 26.7826 16.2206 25.8518 13.8321 24.9034C13.9375 23.9375 14.0428 22.9891 14.1482 22.0232C32.5184 14.7524 50.8535 7.37618 69.3115 0.368799C71.4542 -0.439069 74.4924 0.263425 76.8634 1.01861C92.1075 5.95363 107.316 11.0291 122.473 16.2276C124.422 16.895 126.073 18.4229 129.533 20.6006C123.509 21.4261 119.575 21.9529 115.641 22.4974ZM109.178 17.7906C98.0787 13.4176 85.9958 8.6231 73.8602 3.96908C72.666 3.51246 70.98 3.61783 69.7857 4.10958C55.7885 9.81734 41.844 15.6305 28.4088 21.2153C55.3846 20.0738 82.7467 18.9146 109.178 17.7906Z" fill="black"/>
<path d="M16.045 71.9354C31.0432 71.5314 46.059 71.1451 61.0573 70.6884C81.3242 70.0738 101.574 69.3888 121.841 68.739C121.577 72.6203 121.314 76.5191 121.05 80.4004C120.418 79.7682 119.803 79.1535 119.171 78.5212C119.891 73.0945 116.73 72.3393 112.357 72.5676C81.5525 74.2185 50.7306 75.8166 20.5585 77.3797C19.2765 80.1019 18.2227 82.3323 17.1865 84.5627C16.8002 80.3653 16.4314 76.1503 16.045 71.9354Z" fill="black"/>
<path d="M22.7186 31.3312C26.8809 30.5409 31.0608 29.7506 36.8036 28.6617C37.2778 40.5163 37.5061 51.1591 38.2086 61.7492C38.6126 68.0541 34.3449 67.7028 30.3056 68.3351C25.4232 69.0903 23.0875 67.0355 23.0699 62.2585C23.0348 56.1644 23.2455 50.0527 23.1401 43.9585C23.0875 40.7973 22.6133 37.6537 22.3323 34.4924C22.4376 33.4387 22.5781 32.385 22.7186 31.3312ZM29.0938 63.9621C33.66 61.8195 34.9245 47.6993 31.7984 33.8251C27.5483 36.8282 26.1257 52.6695 29.0938 63.9621Z" fill="black"/>
<path d="M27.9874 83.5617C35.3811 81.9986 42.7397 79.2413 50.1511 79.0657C72.3147 78.5739 94.496 79.1008 116.677 79.2062C117.503 79.2062 118.328 78.7671 119.154 78.5388C119.786 79.1711 120.4 79.7857 121.033 80.418C117.011 81.2083 112.989 82.0162 108.967 82.8065C86.8564 83.2455 64.7629 83.7197 42.6519 84.1061C38.3667 84.1763 34.0639 83.8778 29.7612 83.7373C29.1816 83.6846 28.5845 83.6143 27.9874 83.5617Z" fill="black"/>
<path d="M46.1117 65.0861C45.4267 53.5652 44.7418 42.0618 44.0569 30.8395C54.5416 26.607 56.3681 27.3446 57.2286 37.1444C57.8785 44.6259 58.1243 52.3007 57.0881 59.6769C56.7018 62.4693 52.2585 64.7173 49.6593 67.2111C48.465 66.5086 47.2884 65.8061 46.1117 65.0861ZM49.6241 60.7482C50.5023 60.836 51.3804 60.9062 52.2585 60.994C52.2585 51.7387 52.2585 42.4833 52.2585 33.228C51.3804 33.228 50.5023 33.2455 49.6241 33.2455C49.6241 42.4131 49.6241 51.5806 49.6241 60.7482Z" fill="black"/>
<path d="M66.8001 66.3154C66.1679 56.0239 65.5005 46.5051 65.0615 36.9512C64.8331 32.0688 65.0088 27.3621 71.9459 27.2392C78.725 27.1162 78.1805 32.3674 78.5493 36.354C79.1289 42.4306 78.2508 48.7004 79.1816 54.6891C80.7798 64.8577 75.4057 66.7545 66.8001 66.3154ZM70.0492 30.98C70.0492 41.6403 70.0492 51.8616 70.0492 62.4517C77.2673 58.8514 77.2146 35.7394 70.0492 30.98Z" fill="black"/>
<path d="M99.0095 61.5736C86.5226 65.7183 86.47 65.7183 86.3295 54.6189C86.2241 46.2943 86.3119 37.9522 86.3119 29.4872C89.4555 29.6804 92.248 29.856 96.0239 30.1019C97.0425 40.7446 98.0435 51.2996 99.0095 61.5736ZM90.7376 60.3091C92.1953 60.1335 93.653 59.9579 95.1106 59.7822C94.1623 50.8079 93.1963 41.8511 92.248 32.8767C91.0888 32.9996 89.9122 33.1226 88.7531 33.2455C89.4204 42.255 90.0878 51.2821 90.7376 60.3091Z" fill="black"/>
<path d="M105.209 61.9599C105.209 52.4235 104.928 42.8521 105.455 33.3333C105.56 31.4892 108.844 29.8032 110.671 28.0646C112.374 29.8559 115.413 31.5595 115.536 33.4387C116.045 41.2539 116.326 49.2096 115.29 56.9195C114.921 59.7119 110.583 61.9599 108.054 64.4538C107.106 63.6283 106.157 62.7853 105.209 61.9599ZM111.215 33.3333C110.688 33.3157 110.179 33.2982 109.652 33.2982C109.652 41.6578 109.652 50.0351 109.652 58.3948C110.179 58.4123 110.688 58.4299 111.215 58.4474C111.215 50.0702 111.215 41.693 111.215 33.3333Z" fill="black"/>
<path d="M109.178 17.7906C82.7468 18.9146 55.3846 20.0737 28.4089 21.2153C41.8616 15.6304 55.8061 9.79975 69.7858 4.10955C70.98 3.6178 72.666 3.51243 73.8602 3.96905C85.9958 8.62307 98.0787 13.4176 109.178 17.7906Z" fill="#A7B592"/>
</g>
<defs>
<clipPath id="clip0_195_142">
<rect width="129.593" height="100" fill="white" transform="translate(0.203735)"/>
</clipPath>
</defs>
</svg>
