<svg xmlns="http://www.w3.org/2000/svg" xmlns:xlink="http://www.w3.org/1999/xlink" version="1.1" x="0px" y="0px" viewBox="0 0 256 256" enable-background="new 0 0 256 256" xml:space="preserve"><metadata> Svg Vector Icons : http://www.onlinewebfonts.com/icon </metadata><g><g><g><path fill="#ffffff" d="M26.1,43c-6.2,1.1-11.7,5.1-14.4,10.7L10,57.2v48v48l1.4,2.9c3,6.3,8.6,10.3,16.1,11.3c2.3,0.3,4.1,0.6,4.2,0.6c0.1,0.1-0.4,1.4-0.9,3.1c-1.4,4.3-1.8,11.4-0.8,16.2c2.5,11.6,10.9,20.9,22.9,25c4,1.4,14.5,1.4,18.5,0c9-3.1,16.2-9,20-16.8c3.6-7.3,4.5-14.7,2.7-22c-0.5-2.1-1.1-4.3-1.3-4.8c-0.4-0.8,1.5-0.9,35.2-0.9s35.5,0.1,35.2,0.9c-2.2,5.5-2.8,12.8-1.6,18.6c2.5,11.6,10.9,20.9,22.9,25c4,1.4,14.5,1.4,18.5,0c9-3.1,16.2-9,20-16.8c3.6-7.3,4.5-14.7,2.7-22c-0.5-2.1-1.1-4.2-1.3-4.7c-0.3-0.7,0.4-0.9,3.8-1.3c7.7-1,13.3-4.9,16.4-11.5c1.3-2.7,1.3-3.2,1.5-13.3c0.2-12.1-0.2-13.7-3.7-17.3c-3.8-3.9-3.9-3.9-31.8-3.9c-27.9,0-27.4,0.1-29.2-3.8c-0.8-1.8-1-3.5-1-12.6c0-16.9-0.5-16.4,18.7-16.4c12.5,0,13.2,0,14.2-1c0.6-0.6,1-1.5,1-2.2c0-1.2-8.5-15.2-10.7-17.5c-2.1-2.2-5.7-4.3-8.9-5.2c-2.5-0.7-5.1-0.8-17-0.7c-15.8,0.2-16.3,0.3-20.1,4.5c-3.4,3.8-3.4,3.8-3.4,38.8c0,30.2,0,31.4-1,32.9c-0.6,0.8-1.5,1.8-2.2,2.2c-1.6,0.9-4.8,0.9-6.6,0c-3.2-1.6-3.1-0.2-3.1-41c0-24.6-0.2-38.2-0.6-40.2c-1.5-8.2-7.9-14.5-16.1-16.1C121,42.4,30,42.4,26.1,43z M67.5,168.9c6.8,3.2,9.7,11.7,6.1,18.1c-5.2,9.3-17.9,9.2-23-0.1c-1.7-3.1-2-7-0.9-10.5c0.9-2.6,4.4-6.4,7-7.6C59.5,167.6,64.8,167.6,67.5,168.9z M199.1,168.9c6.8,3.2,9.7,11.7,6.1,18.1c-5.2,9.3-17.9,9.2-23-0.1c-1.7-3.1-2-7-0.9-10.5c0.9-2.6,4.4-6.4,7-7.6C191,167.6,196.3,167.6,199.1,168.9z"/></g></g></g></svg>